# Blender v2.79 (sub 0) OBJ File: ''
# www.blender.org
o Cone
v 0.000000 -1.000000 1.000000
v -0.195090 -1.000000 0.980785
v -0.382683 -1.000000 0.923880
v -0.555570 -1.000000 0.831470
v -0.707107 -1.000000 0.707107
v -0.831470 -1.000000 0.555570
v -0.923880 -1.000000 0.382683
v -0.980785 -1.000000 0.195090
v -1.000000 -1.000000 0.000000
v -0.980785 -1.000000 -0.195090
v -0.923880 -1.000000 -0.382683
v -0.831470 -1.000000 -0.555570
v -0.707107 -1.000000 -0.707107
v -0.555570 -1.000000 -0.831470
v -0.382683 -1.000000 -0.923880
v -0.195090 -1.000000 -0.980785
v 0.000000 -1.000000 -1.000000
v 0.195091 -1.000000 -0.980785
v 0.382684 -1.000000 -0.923879
v 0.555571 -1.000000 -0.831469
v 0.707107 -1.000000 -0.707106
v 0.831470 -1.000000 -0.555570
v 0.923880 -1.000000 -0.382683
v 0.000000 1.000000 0.000000
v 0.980785 -1.000000 -0.195089
v 1.000000 -1.000000 0.000001
v 0.980785 -1.000000 0.195091
v 0.923879 -1.000000 0.382684
v 0.831469 -1.000000 0.555571
v 0.707106 -1.000000 0.707108
v 0.555569 -1.000000 0.831470
v 0.382682 -1.000000 0.923880
v 0.195089 -1.000000 0.980786
vt 0.462304 0.398711
vt 0.757901 0.000000
vt 0.491955 0.422495
vt 0.526589 0.444324
vt 0.564873 0.463358
vt 0.605339 0.478866
vt 0.646429 0.490251
vt 0.686565 0.497078
vt 0.724205 0.499082
vt 0.757901 0.496187
vt 0.000000 0.843968
vt 0.293186 0.448511
vt 0.025146 0.867079
vt 0.056328 0.888721
vt 0.092350 0.908060
vt 0.131826 0.924354
vt 0.173240 0.936977
vt 0.214999 0.945444
vt 0.255500 0.949429
vt 0.293186 0.948780
vt 0.731960 0.917650
vt 1.000000 0.499082
vt 0.763143 0.939291
vt 0.799165 0.958631
vt 0.838641 0.974925
vt 0.880054 0.987548
vt 0.921814 0.996015
vt 0.962315 1.000000
vt 1.000000 0.999350
vt 0.731960 0.499731
vt 0.731960 1.000000
vt 0.694275 0.499082
vt 0.653774 0.503067
vt 0.612015 0.511533
vt 0.570601 0.524157
vt 0.531125 0.540451
vt 0.495103 0.559790
vt 0.463920 0.581431
vt 0.438775 0.604543
vt 0.438775 0.373885
vt 0.155394 0.008618
vt 0.430344 0.158842
vt 0.283380 0.439893
vt 0.008431 0.289668
vt 0.000000 0.246343
vt 0.000000 0.202168
vt 0.008431 0.158843
vt 0.024969 0.118031
vt 0.048978 0.081301
vt 0.079536 0.050065
vt 0.115468 0.025523
vt 0.197780 0.000000
vt 0.240995 0.000000
vt 0.283380 0.008618
vt 0.323306 0.025523
vt 0.359239 0.050065
vt 0.389797 0.081301
vt 0.413806 0.118031
vt 0.438775 0.202168
vt 0.438775 0.246343
vt 0.430344 0.289668
vt 0.413806 0.330480
vt 0.389797 0.367210
vt 0.359239 0.398446
vt 0.323306 0.422988
vt 0.240995 0.448511
vt 0.197779 0.448511
vt 0.155394 0.439893
vt 0.115468 0.422988
vt 0.079536 0.398446
vt 0.048978 0.367210
vt 0.024969 0.330480
vn 0.0000 -0.5033 0.8641
vn 0.0000 1.0000 0.0000
vn -0.1686 -0.5033 0.8475
vn -0.3307 -0.5033 0.7983
vn -0.4801 -0.5033 0.7185
vn -0.6110 -0.5033 0.6110
vn -0.7185 -0.5033 0.4801
vn -0.7983 -0.5033 0.3307
vn -0.8475 -0.5033 0.1686
vn -0.8641 -0.5033 0.0000
vn -0.8475 -0.5033 -0.1686
vn -0.7983 -0.5033 -0.3307
vn -0.7185 -0.5033 -0.4801
vn -0.6110 -0.5033 -0.6110
vn -0.4801 -0.5033 -0.7185
vn -0.3307 -0.5033 -0.7983
vn -0.1686 -0.5033 -0.8475
vn 0.0000 -0.5033 -0.8641
vn 0.1686 -0.5033 -0.8475
vn 0.3307 -0.5033 -0.7983
vn 0.4801 -0.5033 -0.7185
vn 0.6110 -0.5033 -0.6110
vn 0.7185 -0.5033 -0.4801
vn 0.7983 -0.5033 -0.3307
vn 0.8475 -0.5033 -0.1686
vn 0.8641 -0.5033 0.0000
vn 0.8475 -0.5033 0.1686
vn 0.7983 -0.5033 0.3307
vn 0.7185 -0.5033 0.4801
vn 0.6110 -0.5033 0.6110
vn 0.4801 -0.5033 0.7185
vn 0.3307 -0.5033 0.7983
vn 0.1686 -0.5033 0.8475
s 1
f 1/1/1 24/2/2 2/3/3
f 2/3/3 24/2/2 3/4/4
f 3/4/4 24/2/2 4/5/5
f 4/5/5 24/2/2 5/6/6
f 5/6/6 24/2/2 6/7/7
f 6/7/7 24/2/2 7/8/8
f 7/8/8 24/2/2 8/9/9
f 8/9/9 24/2/2 9/10/10
f 9/11/10 24/12/2 10/13/11
f 10/13/11 24/12/2 11/14/12
f 11/14/12 24/12/2 12/15/13
f 12/15/13 24/12/2 13/16/14
f 13/16/14 24/12/2 14/17/15
f 14/17/15 24/12/2 15/18/16
f 15/18/16 24/12/2 16/19/17
f 16/19/17 24/12/2 17/20/18
f 17/21/18 24/22/2 18/23/19
f 18/23/19 24/22/2 19/24/20
f 19/24/20 24/22/2 20/25/21
f 20/25/21 24/22/2 21/26/22
f 21/26/22 24/22/2 22/27/23
f 22/27/23 24/22/2 23/28/24
f 23/28/24 24/22/2 25/29/25
f 25/30/25 24/31/2 26/32/26
f 26/32/26 24/31/2 27/33/27
f 27/33/27 24/31/2 28/34/28
f 28/34/28 24/31/2 29/35/29
f 29/35/29 24/31/2 30/36/30
f 30/36/30 24/31/2 31/37/31
f 31/37/31 24/31/2 32/38/32
f 32/38/32 24/31/2 33/39/33
f 33/40/33 24/2/2 1/1/1
f 8/41/9 16/42/17 25/43/25
f 33/44/33 1/45/1 2/46/3
f 2/46/3 3/47/4 4/48/5
f 4/48/5 5/49/6 6/50/7
f 6/50/7 7/51/8 4/48/5
f 7/51/8 8/41/9 4/48/5
f 8/41/9 9/52/10 10/53/11
f 10/53/11 11/54/12 8/41/9
f 11/54/12 12/55/13 8/41/9
f 12/55/13 13/56/14 16/42/17
f 13/56/14 14/57/15 16/42/17
f 14/57/15 15/58/16 16/42/17
f 16/42/17 17/59/18 18/60/19
f 18/60/19 19/61/20 20/62/21
f 20/62/21 21/63/22 22/64/23
f 22/64/23 23/65/24 25/43/25
f 25/43/25 26/66/26 27/67/27
f 27/67/27 28/68/28 29/69/29
f 29/69/29 30/70/30 33/44/33
f 30/70/30 31/71/31 33/44/33
f 31/71/31 32/72/32 33/44/33
f 33/44/33 2/46/3 4/48/5
f 16/42/17 18/60/19 25/43/25
f 18/60/19 20/62/21 25/43/25
f 20/62/21 22/64/23 25/43/25
f 25/43/25 27/67/27 33/44/33
f 27/67/27 29/69/29 33/44/33
f 33/44/33 4/48/5 8/41/9
f 8/41/9 12/55/13 16/42/17
f 33/44/33 8/41/9 25/43/25
